<svg id="Group_547" data-name="Group 547" xmlns="http://www.w3.org/2000/svg" xmlns:xlink="http://www.w3.org/1999/xlink" width="4177.622" height="486.644" viewBox="0 0 4177.622 486.644">
  <defs>
    <clipPath id="clip-path">
      <rect id="Rectangle_372" data-name="Rectangle 372" width="4177.622" height="486.644" fill="#151515"/>
    </clipPath>
  </defs>
  <path id="Path_1402" data-name="Path 1402" d="M309.741,8.424V205.415H73.871V8.424H0v469.8H73.871v-210.6h235.87v210.6h73.871V8.424Z" fill="#151515"/>
  <g id="Group_546" data-name="Group 546">
    <g id="Group_545" data-name="Group 545" clip-path="url(#clip-path)">
      <path id="Path_1403" data-name="Path 1403" d="M453.6,243C453.6,99.792,539.135,0,675.861,0,811.94,0,897.475,99.792,897.475,243S811.94,486.644,675.861,486.644C539.135,486.644,453.6,386.2,453.6,243m368.061,0c0-117.935-64.151-181.438-145.8-181.438-82.3,0-146.447,63.5-146.447,181.438s64.152,182.086,146.447,182.086c81.648,0,145.8-64.151,145.8-182.086" fill="#151515"/>
      <path id="Path_1404" data-name="Path 1404" d="M1040.032,82.944V478.22H967.457V8.424H1086.04l117.287,383.613L1320.614,8.424H1439.2v469.8h-72.575V82.944L1241.558,478.22H1165.1Z" fill="#151515"/>
      <path id="Path_1405" data-name="Path 1405" d="M1854.562,8.424V71.279H1603.14V205.415h237.166v62.207H1603.14V415.364h251.422V478.22H1529.269V8.424Z" fill="#151515"/>
      <path id="Path_1406" data-name="Path 1406" d="M1897.332,130.247C1897.332,41.472,1989.995,0,2069.05,0c86.183,0,160.7,39.528,178.846,134.136h-71.279c-14.9-55.728-66.1-72.576-110.806-72.576-34.344,0-93.312,16.2-93.312,65.448,0,38.879,31.1,58.967,71.279,67.39l55.728,11.664c75.168,15.552,157.463,44.065,157.463,138.671,0,93.311-89.423,141.911-180.791,141.911-108.863,0-182.086-60.264-193.1-158.759h72.575c13.608,64.152,57.024,97.2,123.119,97.2,60.912,0,103.679-29.159,103.679-74.519,0-48.6-46.655-68.039-97.2-78.407l-57.672-11.664c-66.743-13.607-130.246-51.191-130.246-130.247" fill="#151515"/>
      <path id="Path_1407" data-name="Path 1407" d="M2261.51,71.28V8.425H2636.7V71.28H2486.364V478.22h-73.871V71.28Z" fill="#151515"/>
      <path id="Path_1408" data-name="Path 1408" d="M2743.616,290.3c0,88.775,27.864,134.136,115.991,134.136s116.639-49.9,116.639-139.32V8.424h73.872V281.23c0,142.558-53.784,205.414-190.511,205.414-132.839,0-189.862-53.136-189.862-201.527V8.424h73.871Z" fill="#151515"/>
      <path id="Path_1409" data-name="Path 1409" d="M3520.565,243c0,181.439-110.159,235.222-259.2,235.222h-128.3V8.424h128.3c149.039,0,259.2,53.784,259.2,234.574M3206.936,69.336V417.309h51.19c93.96,0,185.976-19.44,185.976-174.311,0-154.222-92.016-173.662-185.976-173.662Z" fill="#151515"/>
      <rect id="Rectangle_371" data-name="Rectangle 371" width="73.871" height="469.796" transform="translate(3589.898 8.424)" fill="#151515"/>
      <path id="Path_1410" data-name="Path 1410" d="M3733.745,243c0-143.206,85.536-243,222.263-243,136.079,0,221.614,99.792,221.614,243s-85.535,243.646-221.614,243.646c-136.727,0-222.263-100.439-222.263-243.646m368.062,0c0-117.935-64.151-181.438-145.8-181.438-82.3,0-146.447,63.5-146.447,181.438s64.151,182.086,146.447,182.086c81.648,0,145.8-64.151,145.8-182.086" fill="#151515"/>
    </g>
  </g>
</svg>
